<svg xmlns="http://www.w3.org/2000/svg" viewBox="0 0 654.23 230.76"><defs><style>.a{fill:#282828;}.b{fill:#454545;}.c{isolation:isolate;}.d{fill:#fff;}.e{fill:none;}</style></defs><circle class="a" cx="94.32" cy="136.44" r="94.32"/><path class="b" d="M180.24,135.62l-9.5-8.93a1.12,1.12,0,0,0-1.9.8v17.86a1.15,1.15,0,0,0,1.9.9l9.5-8.93A1.15,1.15,0,0,0,180.24,135.62Z"/><path class="b" d="M103.35,210.92H85.49a1.13,1.13,0,0,0-.8,1.92l8.93,9.58a1.16,1.16,0,0,0,1.71,0l8.93-9.58A1.19,1.19,0,0,0,103.35,210.92Z"/><path class="b" d="M18.1,126.7l-9.58,8.89a1.15,1.15,0,0,0,0,1.7l9.58,8.89a1.13,1.13,0,0,0,1.92-.8V127.6A1.14,1.14,0,0,0,18.1,126.7Z"/><path class="b" d="M104.19,60.17l-8.93-9.58a1.16,1.16,0,0,0-1.71,0l-8.93,9.58a1.18,1.18,0,0,0,.9,1.92h17.86A1.13,1.13,0,0,0,104.19,60.17Z"/><circle class="a" cx="559.92" cy="136.44" r="94.32"/><g class="c"><path class="a" d="M400.2,221.26a56.14,56.14,0,1,1,56.14-56.14A56.2,56.2,0,0,1,400.2,221.26Z"/><path class="b" d="M400.2,118.48a46.64,46.64,0,1,1-46.64,46.64,46.69,46.69,0,0,1,46.64-46.64m0-19a65.64,65.64,0,1,0,65.64,65.64A65.64,65.64,0,0,0,400.2,99.48Z"/></g><g class="c"><circle class="a" cx="254.28" cy="165.12" r="56.14"/><path class="b" d="M254.28,118.48a46.64,46.64,0,1,1-46.64,46.64,46.69,46.69,0,0,1,46.64-46.64m0-19a65.64,65.64,0,1,0,65.64,65.64,65.64,65.64,0,0,0-65.64-65.64Z"/></g><rect class="a" x="249.71" y="8.93" width="155.51" height="69.66" rx="8.5"/><path class="b" d="M396.72,10.43a7,7,0,0,1,7,7V70.09a7,7,0,0,1-7,7H258.21a7,7,0,0,1-7-7V17.43a7,7,0,0,1,7-7H396.72m0-3H258.21a10,10,0,0,0-10,10V70.09a10,10,0,0,0,10,10H396.72a10,10,0,0,0,10-10V17.43a10,10,0,0,0-10-10Z"/><path class="a" d="M444.77,69.5a16.61,16.61,0,0,1-4.26-.56,16.44,16.44,0,0,1-11.62-20.11L434,29.88A16.44,16.44,0,0,1,449.82,17.7,16.43,16.43,0,0,1,465.7,38.38l-5.08,18.95A16.43,16.43,0,0,1,444.77,69.5Z"/><path class="b" d="M449.82,16.2v3a15,15,0,0,1,3.88.52A14.92,14.92,0,0,1,464.25,38l-5.08,18.95a14.92,14.92,0,1,1-28.83-7.73l5.08-18.94a14.93,14.93,0,0,1,14.4-11.07v-3m0,0a18,18,0,0,0-17.3,13.29l-5.08,19a17.93,17.93,0,0,0,12.68,22h0a18.17,18.17,0,0,0,4.65.61,17.94,17.94,0,0,0,17.3-13.28l5.08-18.95a17.93,17.93,0,0,0-12.68-22h0a17.75,17.75,0,0,0-4.65-.62Z"/><path class="a" d="M209.89,69.66A16.45,16.45,0,0,1,194,57.48L189,38.54a16.42,16.42,0,0,1,11.61-20.12,16.67,16.67,0,0,1,4.26-.56A16.42,16.42,0,0,1,220.68,30L225.76,49a16.46,16.46,0,0,1-15.87,20.68Z"/><path class="b" d="M204.83,19.36h0a15,15,0,0,1,14.41,11.06l5.07,18.95a14.92,14.92,0,1,1-28.83,7.72l-5.07-18.94a14.93,14.93,0,0,1,14.42-18.79m0-3a18.28,18.28,0,0,0-4.65.61h0a17.92,17.92,0,0,0-12.67,22l5.08,18.95a17.88,17.88,0,0,0,21.95,12.67h0a17.92,17.92,0,0,0,12.67-22l-5.08-18.94a17.92,17.92,0,0,0-17.3-13.29Z"/><path class="a" d="M618,.12H567.84a2.39,2.39,0,0,0-2.4,2.4V28.93a2.39,2.39,0,0,0,2.4,2.4H618a2.39,2.39,0,0,0,2.4-2.4V2.52A2.39,2.39,0,0,0,618,.12Z"/><path class="a" d="M552.72,0H502.59a2.39,2.39,0,0,0-2.4,2.4V28.81a2.39,2.39,0,0,0,2.4,2.4h50.13a2.39,2.39,0,0,0,2.4-2.4V2.4A2.39,2.39,0,0,0,552.72,0Z"/><path class="a" d="M152,.12H101.84a2.39,2.39,0,0,0-2.4,2.4V28.93a2.39,2.39,0,0,0,2.4,2.4H152a2.39,2.39,0,0,0,2.4-2.4V2.52A2.39,2.39,0,0,0,152,.12Z"/><path class="a" d="M86.49.12H36.36A2.39,2.39,0,0,0,34,2.52V28.93a2.39,2.39,0,0,0,2.4,2.4H86.49a2.39,2.39,0,0,0,2.4-2.4V2.52A2.39,2.39,0,0,0,86.49.12Z"/><path class="d" d="M584.83,9.75a16.53,16.53,0,0,1,3-.25,5,5,0,0,1,3.51,1,3,3,0,0,1,.95,2.3,3.19,3.19,0,0,1-2.29,3.1v0a3,3,0,0,1,1.78,2.45,18.93,18.93,0,0,0,.94,3.33h-1.62a15.42,15.42,0,0,1-.81-2.9c-.36-1.67-1-2.3-2.43-2.36h-1.48v5.26h-1.57v-12Zm1.57,5.53H588c1.67,0,2.74-.92,2.74-2.3,0-1.57-1.13-2.25-2.79-2.27a6.6,6.6,0,0,0-1.55.14Z"/><path class="d" d="M594,21.72v-1l1.24-1.21c3-2.84,4.34-4.36,4.36-6.12a2.09,2.09,0,0,0-2.32-2.29,4,4,0,0,0-2.48,1l-.5-1.12a5.15,5.15,0,0,1,3.31-1.19,3.29,3.29,0,0,1,3.58,3.4c0,2.16-1.57,3.91-4,6.28l-.94.86v0h5.26V21.7H594Z"/><path class="d" d="M520.57,9.75a16.53,16.53,0,0,1,3-.25,5,5,0,0,1,3.51,1,3,3,0,0,1,.95,2.3,3.19,3.19,0,0,1-2.29,3.1v0a3,3,0,0,1,1.78,2.45,18.93,18.93,0,0,0,.94,3.33h-1.62a15.42,15.42,0,0,1-.81-2.9c-.36-1.67-1-2.3-2.43-2.36h-1.48v5.26h-1.57v-12Zm1.57,5.53h1.6c1.67,0,2.74-.92,2.74-2.3,0-1.57-1.13-2.25-2.79-2.27a6.6,6.6,0,0,0-1.55.14Z"/><path class="d" d="M533.13,11.5h0l-2,1.1-.3-1.21L533.32,10h1.35v11.7h-1.53V11.5Z"/><path class="d" d="M120.54,9.59h1.57V20.41h5.19v1.31h-6.75V9.59Z"/><path class="d" d="M131.92,11.5h0l-2,1.1-.31-1.21L132.1,10h1.35v11.7h-1.53V11.5Z"/><path class="d" d="M54.06,9.59h1.57V20.41h5.19v1.31H54.06Z"/><path class="d" d="M62,21.72v-1l1.24-1.21c3-2.84,4.34-4.36,4.36-6.12a2.09,2.09,0,0,0-2.32-2.29,4,4,0,0,0-2.48,1L62.3,11a5.15,5.15,0,0,1,3.31-1.19,3.29,3.29,0,0,1,3.58,3.4c0,2.16-1.57,3.91-4,6.28l-.94.86v0h5.26V21.7H62Z"/><rect class="e" x="207.76" y="118.68" width="238.79" height="92.87"/></svg>