<svg xmlns="http://www.w3.org/2000/svg" viewBox="0 0 652 230"><defs><style>.a{fill:#282828;}.b{isolation:isolate;}.c{fill:#454545;}.d{fill:none;}.e{fill:#f2f2f2;}</style></defs><circle class="a" cx="94.5" cy="135.5" r="94.5"/><circle class="a" cx="557.5" cy="135.5" r="94.5"/><g class="b"><circle class="a" cx="397.5" cy="164.5" r="56"/><path class="c" d="M397.5,118A46.5,46.5,0,1,1,351,164.5,46.6,46.6,0,0,1,397.5,118m0-19A65.5,65.5,0,1,0,463,164.5,65.5,65.5,0,0,0,397.5,99Z"/></g><g class="b"><circle class="a" cx="254.5" cy="164.5" r="56"/><path class="c" d="M254.5,118A46.5,46.5,0,1,1,208,164.5,46.6,46.6,0,0,1,254.5,118m0-19A65.5,65.5,0,1,0,320,164.5,65.5,65.5,0,0,0,254.5,99Z"/></g><rect class="d" x="208" y="118" width="236" height="93"/><path class="a" d="M444,70.5a15.9,15.9,0,0,1-4.3-.6,16.3,16.3,0,0,1-11.6-20.1l5.1-19.1A16.4,16.4,0,0,1,449,18.5a15.9,15.9,0,0,1,4.3.6,16.3,16.3,0,0,1,11.6,20.1l-5.1,19.1A16.4,16.4,0,0,1,444,70.5Z"/><path class="c" d="M449,20h0a17.4,17.4,0,0,1,3.9.5h.1a15,15,0,0,1,10.5,18.3l-5.1,19.1A15.1,15.1,0,0,1,444,69a17.4,17.4,0,0,1-3.9-.5H440a15,15,0,0,1-10.5-18.3l5.1-19.1A15.1,15.1,0,0,1,449,20m0-3a18,18,0,0,0-17.3,13.3l-5.1,19.1a18,18,0,0,0,12.7,22h0a19.5,19.5,0,0,0,4.7.6,18,18,0,0,0,17.3-13.3l5.1-19.1a18,18,0,0,0-12.7-22h0A19.5,19.5,0,0,0,449,17Z"/><path class="a" d="M208,70.5a16.4,16.4,0,0,1-15.8-12.2l-5.1-19a16.4,16.4,0,0,1,11.6-20.2,15.4,15.4,0,0,1,4.3-.6,16.4,16.4,0,0,1,15.8,12.2l5.1,19a16.4,16.4,0,0,1-11.6,20.2A15.4,15.4,0,0,1,208,70.5Z"/><path class="c" d="M203,20h0a15,15,0,0,1,14.4,11.1l5.1,19a15.1,15.1,0,0,1-10.6,18.4,17.4,17.4,0,0,1-3.9.5,15,15,0,0,1-14.4-11.1l-5.1-19a15.1,15.1,0,0,1,10.6-18.4A17.4,17.4,0,0,1,203,20m0-3a18.9,18.9,0,0,0-4.7.6h0a18,18,0,0,0-12.7,22l5.1,19.1A18,18,0,0,0,208,72a18.9,18.9,0,0,0,4.7-.6h0a18,18,0,0,0,12.7-22l-5.1-19.1A18,18,0,0,0,203,17Z"/><rect class="a" x="248.5" y="9.5" width="155" height="69" rx="8.5"/><path class="c" d="M395,11a7,7,0,0,1,7,7V70a7,7,0,0,1-7,7H257a7,7,0,0,1-7-7V18a7,7,0,0,1,7-7H395m0-3H257a10,10,0,0,0-10,10V70a10,10,0,0,0,10,10H395a10,10,0,0,0,10-10V18A10,10,0,0,0,395,8Z"/><path class="a" d="M619.6,0H569.4A2.4,2.4,0,0,0,567,2.4V28.6a2.4,2.4,0,0,0,2.4,2.4h50.2a2.4,2.4,0,0,0,2.4-2.4V2.4A2.4,2.4,0,0,0,619.6,0Z"/><path class="a" d="M552.6,0H502.4A2.4,2.4,0,0,0,500,2.4V28.6a2.4,2.4,0,0,0,2.4,2.4h50.2a2.4,2.4,0,0,0,2.4-2.4V2.4A2.4,2.4,0,0,0,552.6,0Z"/><path class="a" d="M150.6,0H100.4A2.4,2.4,0,0,0,98,2.4V28.6a2.4,2.4,0,0,0,2.4,2.4h50.2a2.4,2.4,0,0,0,2.4-2.4V2.4A2.4,2.4,0,0,0,150.6,0Z"/><path class="a" d="M84.6,0H34.4A2.4,2.4,0,0,0,32,2.4V28.6A2.4,2.4,0,0,0,34.4,31H84.6A2.4,2.4,0,0,0,87,28.6V2.4A2.4,2.4,0,0,0,84.6,0Z"/><path class="e" d="M587.3,9.6a10.6,10.6,0,0,1,2.7-.3,4.4,4.4,0,0,1,3.1.9,2.9,2.9,0,0,1,.8,2.1,2.8,2.8,0,0,1-2,2.7h0c.8.2,1.3,1,1.6,2.1a16.1,16.1,0,0,0,.8,3h-1.4a11.6,11.6,0,0,1-.7-2.6c-.4-1.5-.9-2-2.2-2.1h-1.3v4.7h-1.4Zm1.4,4.9h1.4a2.2,2.2,0,0,0,2.5-2.1c0-1.4-1.1-2-2.5-2h-1.4Z"/><path class="e" d="M595.4,20.2v-.9l1.1-1c2.7-2.6,3.9-3.9,3.9-5.5a1.9,1.9,0,0,0-2.1-2,3.7,3.7,0,0,0-2.2.9l-.4-1a4.5,4.5,0,0,1,2.9-1.1,2.9,2.9,0,0,1,3.2,3c0,2-1.4,3.5-3.6,5.6l-.8.8h4.7v1.2Z"/><path class="e" d="M520.3,9.6a10.6,10.6,0,0,1,2.7-.3,4.4,4.4,0,0,1,3.1.9,2.9,2.9,0,0,1,.8,2.1,2.8,2.8,0,0,1-2,2.7h0c.8.2,1.3,1,1.6,2.1a16.1,16.1,0,0,0,.8,3h-1.4a11.6,11.6,0,0,1-.7-2.6c-.4-1.5-.9-2-2.2-2.1h-1.3v4.7h-1.4Zm1.4,4.9h1.4a2.2,2.2,0,0,0,2.5-2.1c0-1.4-1.1-2-2.5-2h-1.4Z"/><path class="e" d="M531.5,11.1h-.1l-1.8,1-.2-1.1,2.2-1.2h1.2V20.2h-1.3Z"/><path class="e" d="M118.8,9.4h1.4V19h4.6v1.2h-6Z"/><path class="e" d="M129,11.1h-.1l-1.8,1-.3-1.1,2.3-1.2h1.2V20.2H129Z"/><path class="e" d="M52.8,9.4h1.4V19h4.6v1.2h-6Z"/><path class="e" d="M59.9,20.2v-.9l1.1-1c2.7-2.6,3.9-3.9,3.9-5.5a1.9,1.9,0,0,0-2.1-2,3.7,3.7,0,0,0-2.2.9l-.5-1a5,5,0,0,1,3-1.1,3,3,0,0,1,3.2,3c0,2-1.4,3.5-3.6,5.6l-.8.8h4.6v1.2Z"/></svg>