<svg xmlns="http://www.w3.org/2000/svg" width="172px" height="102px" viewBox="0 0 172 102"><defs><style>.a{fill:#484848;}.b{fill:#f2f2f2;}.c{fill:gray;}</style></defs><path class="a" d="M169.4,2.1C166.5-1.4,138.6.4,137.9.8s-14.3,11.9-15.7,13.8-1.2,2.9-1.2,2.9-.2.9,1.2,2.9,15,13.4,15.7,13.8,28.6,2.2,31.5-1.3S172,17.5,172,17.5,172.3,5.5,169.4,2.1Z"/><path class="b" d="M165.6,16.6l-9.5-8.9a1.1,1.1,0,0,0-1.9.8V26.4a1.1,1.1,0,0,0,1.9.9l9.5-9A1.2,1.2,0,0,0,165.6,16.6Z"/><path class="a" d="M57.3,3.1h0l-.5-.4-.2-.3c-.1-.1-.2-.1-.2-.2L56,1.7h-.2c0-.1-.1-.1-.1-.2l-.3-.2L54.8.8h-.2L54.2.5H50.8l-.4.2h-.1l-.7.4c0,.1-.1.1-.2.2s-.1.1-.2.2h-.1c-1.8,1.7-6.3,6.9-9.6,10.8h0l-3.7,4.5c-.4.7-2.2,28.6,1.3,31.5S52.5,51,52.5,51s12,.3,15.4-2.6,1.7-30.8,1.3-31.5S61.2,7.2,57.3,3.1Z"/><path class="b" d="M61.5,33.1H43.6a1.1,1.1,0,0,0-.8,1.9l8.9,9.6a1.3,1.3,0,0,0,1.8,0L62.4,35A1.2,1.2,0,0,0,61.5,33.1Z"/><path class="a" d="M119.4,20.9h0l.2-.2.2-.2.4-.6v-.2c.1-.2.2-.3.2-.4s.1-.1.1-.2l.2-.3h0c0-.2.1-.3.1-.4h0c.1,0,.1-.1.1-.2h0a.3.3,0,0,0-.1-.2h0c0-.1-.1-.2-.1-.4h0l-.2-.3v-.2c0-.1-.1-.2-.2-.4h-.1l-.4-.7-.2-.2-.2-.2h0c-1.7-1.8-6.9-6.3-10.8-9.6h0L104.1.8c-.7-.4-28.6-2.2-31.5,1.3S70,17.5,70,17.5s-.3,12,2.6,15.4,30.8,1.7,31.5,1.3l4.5-3.7h0C112.5,27.3,117.7,22.7,119.4,20.9Z"/><path class="b" d="M86,7.9l-9.6,8.9a1.2,1.2,0,0,0,0,1.7L86,27.4a1.1,1.1,0,0,0,1.9-.8V8.8A1.1,1.1,0,0,0,86,7.9Z"/><path class="a" d="M4.5,38.5h0a.1.1,0,0,1-.1.1L9,43.8H9c1.6,1.8,3.1,3.5,4.2,4.6h.1l.2.2.3.2c0,.1,0,.1.1.1l.2.3a.1.1,0,0,1,.1.1h.2l.2.2.7.4h.1l.4.2H16l.3.2h.6c0,.1.1.1.2.1h1.6l.3-.2h.2l.4-.2h.1l.7-.4.2-.2c.1,0,.1-.1.2-.2h.1c1.8-1.7,6.4-6.9,9.6-10.8h0l3.7-4.5c.4-.7,2.2-28.6-1.3-31.5S17.5,0,17.5,0,5.5-.3,2.1,2.6.4,33.4.8,34.1Z"/><path class="b" d="M27,16,18,6.4a1.2,1.2,0,0,0-1.7,0L7.4,16a1.2,1.2,0,0,0,.9,1.9H26.2A1.1,1.1,0,0,0,27,16Z"/><path class="b" d="M169.4,53.1c-2.9-3.5-30.8-1.7-31.5-1.3s-14.3,11.9-15.7,13.8-1.2,2.9-1.2,2.9-.2.9,1.2,2.9,15,13.4,15.7,13.8,28.6,2.2,31.5-1.3S172,68.5,172,68.5,172.3,56.5,169.4,53.1Z"/><path class="c" d="M165.6,67.6l-9.5-8.9a1.1,1.1,0,0,0-1.9.8V77.4a1.1,1.1,0,0,0,1.9.9l9.5-9A1.2,1.2,0,0,0,165.6,67.6Z"/><path class="b" d="M57.3,54.1h0l-.5-.4-.2-.3c-.1-.1-.2-.1-.2-.2l-.4-.4h-.2c0-.1-.1-.1-.1-.2l-.3-.2-.6-.4h-.2l-.4-.2H50.8l-.4.2h-.1l-.7.4-.2.2c-.1,0-.1.1-.2.2h-.1c-1.8,1.7-6.3,6.9-9.6,10.8h0l-3.7,4.5c-.4.7-2.2,28.6,1.3,31.5S52.5,102,52.5,102s12,.3,15.4-2.6,1.7-30.8,1.3-31.5S61.2,58.2,57.3,54.1Z"/><path class="c" d="M61.5,84.1H43.6a1.1,1.1,0,0,0-.8,1.9l8.9,9.6a1.3,1.3,0,0,0,1.8,0L62.4,86A1.2,1.2,0,0,0,61.5,84.1Z"/><path class="b" d="M119.4,71.9h0c.1-.1.2-.1.2-.2l.2-.2a6.1,6.1,0,0,0,.4-.6.3.3,0,0,0,.1-.2l.2-.4V70l.2-.3h0c0-.2.1-.3.1-.4h0c.1,0,.1-.1.1-.2h0v-.2h0c0-.1-.1-.2-.1-.4h0l-.2-.3v-.2l-.2-.4h-.1l-.4-.7-.2-.2c0-.1-.1-.1-.2-.2h0c-1.7-1.8-6.9-6.3-10.8-9.6h0l-4.5-3.7c-.7-.4-28.6-2.2-31.5,1.3S70,68.5,70,68.5s-.3,12,2.6,15.4,30.8,1.7,31.5,1.3l4.5-3.7h0C112.5,78.3,117.7,73.7,119.4,71.9Z"/><path class="c" d="M86,58.9l-9.6,8.9a1.2,1.2,0,0,0,0,1.7L86,78.4a1.1,1.1,0,0,0,1.9-.8V59.8A1.1,1.1,0,0,0,86,58.9Z"/><path class="b" d="M4.5,89.5H4.4L9,94.8H9c1.6,1.8,3.1,3.5,4.2,4.6h.1l.2.2.3.2h.1l.2.3h.3l.2.2.7.4h.1l.4.2H16l.3.2h2.4l.3-.2h.2l.4-.2h.1l.7-.4.2-.2.2-.2h.1c1.8-1.7,6.4-6.9,9.6-10.8h0l3.7-4.5c.4-.7,2.2-28.6-1.3-31.5S17.5,51,17.5,51s-12-.3-15.4,2.6S.4,84.4.8,85.1Z"/><path class="c" d="M27,67l-9-9.6a1.2,1.2,0,0,0-1.7,0L7.4,67a1.2,1.2,0,0,0,.9,1.9H26.2A1.1,1.1,0,0,0,27,67Z"/></svg>
