<svg xmlns="http://www.w3.org/2000/svg" viewBox="0 0 282 94"><defs><style>.a,.c{fill:#101010;}.a,.d{opacity:0.95;}.b{fill:#090909;}.d{fill:#f2f2f2;}.e{fill:#b7b7b7;}.f{fill:#e5e5e5;}</style></defs><circle class="a" cx="47" cy="47" r="39"/><path class="b" d="M47,16A31,31,0,1,1,16,47,31,31,0,0,1,47,16M47,0A47,47,0,1,0,94,47,46.9,46.9,0,0,0,47,0Z"/><path class="c" d="M47,14A33,33,0,1,1,14,47,33,33,0,0,1,47,14M47,0A47,47,0,1,0,94,47,46.9,46.9,0,0,0,47,0Z"/><circle class="d" cx="141" cy="47" r="39"/><path class="e" d="M141,16a31,31,0,1,1-31,31,31,31,0,0,1,31-31m0-16a47,47,0,1,0,47,47A46.9,46.9,0,0,0,141,0Z"/><path class="f" d="M141,14a33,33,0,1,1-33,33,33,33,0,0,1,33-33m0-14a47,47,0,1,0,47,47A46.9,46.9,0,0,0,141,0Z"/><circle class="d" cx="235" cy="47" r="39"/><path class="e" d="M235,16a31,31,0,1,1-31,31,31,31,0,0,1,31-31m0-16a47,47,0,1,0,47,47A46.9,46.9,0,0,0,235,0Z"/><path class="f" d="M235,14a33,33,0,1,1-33,33,33,33,0,0,1,33-33m0-14a47,47,0,1,0,47,47A46.9,46.9,0,0,0,235,0Z"/></svg>