<svg xmlns="http://www.w3.org/2000/svg" viewBox="0 0 282 94"><defs><style>.a{fill:#333;}.b{fill:#484848;}.c{fill:#282828;}.d{fill:#ccc;}.e{fill:#b7b7b7;}.f{fill:#d7d7d7;}</style></defs><circle class="a" cx="47" cy="47" r="40.5"/><path class="b" d="M47,13A34,34,0,1,1,13,47,34.1,34.1,0,0,1,47,13M47,0A47,47,0,1,0,94,47,46.9,46.9,0,0,0,47,0Z"/><path class="c" d="M47,10A37,37,0,1,1,10,47,37,37,0,0,1,47,10M47,0A47,47,0,1,0,94,47,46.9,46.9,0,0,0,47,0Z"/><circle class="d" cx="141" cy="47" r="40.5"/><path class="e" d="M141,13a34,34,0,1,1-34,34,34.1,34.1,0,0,1,34-34m0-13a47,47,0,1,0,47,47A46.9,46.9,0,0,0,141,0Z"/><path class="f" d="M141,10a37,37,0,1,1-37,37,37,37,0,0,1,37-37m0-10a47,47,0,1,0,47,47A46.9,46.9,0,0,0,141,0Z"/><circle class="d" cx="235" cy="47" r="40.5"/><path class="e" d="M235,13a34,34,0,1,1-34,34,34.1,34.1,0,0,1,34-34m0-13a47,47,0,1,0,47,47A46.9,46.9,0,0,0,235,0Z"/><path class="f" d="M235,10a37,37,0,1,1-37,37,37,37,0,0,1,37-37m0-10a47,47,0,1,0,47,47A46.9,46.9,0,0,0,235,0Z"/></svg>