<svg xmlns="http://www.w3.org/2000/svg" viewBox="0 0 282 94"><defs><style>.a{fill:#202020;opacity:0.85;}.b{fill:#282828;}.c{fill:#ccc;}.d{fill:#b7b7b7;}.e{fill:#d7d7d7;}</style></defs><circle class="a" cx="47" cy="47" r="47"/><path class="b" d="M47,7A40,40,0,1,1,7,47,40,40,0,0,1,47,7m0-7A47,47,0,1,0,94,47,46.9,46.9,0,0,0,47,0Z"/><circle class="c" cx="141" cy="47" r="40.5"/><path class="d" d="M141,13a34,34,0,1,1-34,34,34.1,34.1,0,0,1,34-34m0-13a47,47,0,1,0,47,47A46.9,46.9,0,0,0,141,0Z"/><path class="e" d="M141,10a37,37,0,1,1-37,37,37,37,0,0,1,37-37m0-10a47,47,0,1,0,47,47A46.9,46.9,0,0,0,141,0Z"/><circle class="c" cx="235" cy="47" r="40.5"/><path class="d" d="M235,13a34,34,0,1,1-34,34,34.1,34.1,0,0,1,34-34m0-13a47,47,0,1,0,47,47A46.9,46.9,0,0,0,235,0Z"/><path class="e" d="M235,10a37,37,0,1,1-37,37,37,37,0,0,1,37-37m0-10a47,47,0,1,0,47,47A46.9,46.9,0,0,0,235,0Z"/></svg>