<svg xmlns="http://www.w3.org/2000/svg" width="172px" height="102px" viewBox="0 0 172 102"><defs><style>.a{fill:#d7d7d7;}.b{fill:#b7b7b7;}.c{fill:#282828;}.d{fill:#f2f2f2;}</style></defs><path class="a" d="M154.2,34c-7.5,0-14.7-.5-15.9-.7S124.2,21.5,123,19.8a4.8,4.8,0,0,1-1-2.2v-.3H122a4.8,4.8,0,0,1,1-2.1c1.2-1.7,13.7-12.3,15.4-13.5A156.9,156.9,0,0,1,154.2,1c12.3,0,14.2,1.4,14.4,1.7,2.2,2.6,2.5,11.6,2.4,14.8s-.2,12.2-2.4,14.8c-.2.3-2.1,1.7-14.4,1.7Z"/><path class="b" d="M154.2,2c11.4,0,13.5,1.3,13.7,1.4,1.6,2,2.2,9.4,2.1,14.1h0c.1,4.6-.5,12-2.1,14-.2.1-2.3,1.4-13.7,1.4-6.9,0-13.8-.5-15.4-.7s-13.9-11.6-15-13.1a12.3,12.3,0,0,1-.8-1.5v-.4a12.3,12.3,0,0,1,.8-1.5c1.1-1.5,12.8-11.4,15-13.1,1.6-.2,8.5-.7,15.4-.7m0-2a138.1,138.1,0,0,0-16.3.8c-.7.4-14.3,11.9-15.7,13.8s-1.2,2.9-1.2,2.9-.2.9,1.2,2.9,15,13.4,15.7,13.8a138.1,138.1,0,0,0,16.3.8c7,0,13.8-.5,15.2-2.1,2.9-3.4,2.6-15.4,2.6-15.4s.3-12-2.6-15.4C168,.5,161.2,0,154.2,0Z"/><path class="b" d="M165.6,16.6l-9.5-8.9a1.1,1.1,0,0,0-1.9.8V26.4a1.1,1.1,0,0,0,1.9.9l9.5-9A1.2,1.2,0,0,0,165.6,16.6Z"/><path class="a" d="M53.5,50h-2c-5.3,0-11.7-.6-13.8-2.4s-1.5-27.5-1-30.2l3.5-4.3,1.4-1.7h0c3.9-4.5,6.9-7.9,8.2-9H50l.2-.2.6-.4h.1l.4-.2h.2l.3-.2h1.9l.4.2h.1l.6.4H55l.7.6.2.2.7.8c3.8,4,10.9,12.4,11.7,13.5.5,2.7,1.7,28-1,30.3S58.8,50,53.5,50Z"/><path class="b" d="M52.7,2h0a.1.1,0,0,1,.1.1h.9l.5.3h.2a.1.1,0,0,1,.1.1h.1l.2.2.2.2h.1a.1.1,0,0,0,.1.1v.2h.3l.2.3h.1c3.7,3.9,10.2,11.7,11.4,13.3s.6,7.6.7,14.4c.1,12.4-1.3,14.6-1.4,14.8S59.8,49,53.5,49h-2c-6.3,0-11.5-.8-13.1-2.1-.1-.2-1.5-2.4-1.4-14.8.1-6.8.5-12.8.7-14.3s1.5-1.9,3.3-4.1L43.3,11a90,90,0,0,1,7.2-7.9h.2a.1.1,0,0,0,.1-.1l.5-.3h.6a.1.1,0,0,0,.1-.1h.7m0-2H50.8l-.4.2h-.1l-.7.4c0,.1-.1.1-.2.2s-.1.1-.2.2h-.1c-1.8,1.7-6.3,6.9-9.6,10.8h0l-3.7,4.5c-.4.7-2.2,28.6,1.3,31.5S48.7,51,51.5,51h2c2.8,0,11.5-.2,14.4-2.6s1.7-30.8,1.3-31.5-8-9.7-11.9-13.8h0l-.5-.4-.2-.3c-.1-.1-.2-.1-.2-.2L56,1.7h-.2c0-.1-.1-.1-.1-.2l-.3-.2L54.8.8h-.2L54.2.5H52.7Z"/><path class="b" d="M61.5,33.1H43.6a1.1,1.1,0,0,0-.8,1.9l8.9,9.6a1.3,1.3,0,0,0,1.8,0L62.4,35A1.2,1.2,0,0,0,61.5,33.1Z"/><path class="a" d="M87.8,34c-12.3,0-14.2-1.4-14.4-1.7-2.2-2.6-2.5-11.6-2.4-14.8s.2-12.2,2.4-14.8C73.6,2.4,75.5,1,87.8,1c7.5,0,14.7.5,15.9.7l4.2,3.5,1.7,1.4h0c2.8,2.4,7.5,6.5,9,8.2h.3v.2l.4.6h0c.1.2.2.3.2.4l.2.2v.3a.4.4,0,0,0,.1.3h0v.4h0v.6a.3.3,0,0,1-.1.2h-.1c0,.1-.1.3-.1.4h-.1v.2l-.3.4a.3.3,0,0,0-.1.2l-.2.2c-1.4,1.5-5.4,5-9.1,8.2h0l-1.7,1.4-4.2,3.5C102.5,33.5,95.3,34,87.8,34Z"/><path class="b" d="M87.8,2c6.9,0,13.8.5,15.5.7l4,3.3,3,2.6a91.9,91.9,0,0,1,7.6,6.9h.3l.3.5h.1c0,.1.1.2.1.3v.2h.1v.2a.1.1,0,0,1,.1.1h0v.2h0c0,.1,0,.1-.1.2h0c0,.1-.1.1-.1.2h-.1c0,.1-.1.2-.1.3h-.2a.5.5,0,0,1-.2.4h-.3c-1.2,1.2-4.3,4-7.5,6.8L107.3,29l-4,3.3c-1.7.2-8.6.7-15.5.7-11.4,0-13.5-1.3-13.7-1.4-1.6-2-2.2-9.4-2.1-14.1h0c-.1-4.7.5-12.1,2.1-14.1C74.3,3.3,76.4,2,87.8,2m0-2c-7,0-13.8.5-15.2,2.1C69.7,5.5,70,17.5,70,17.5s-.3,12,2.6,15.4C74,34.5,80.8,35,87.8,35a138.1,138.1,0,0,0,16.3-.8l4.5-3.7h0c3.9-3.2,9.1-7.8,10.8-9.6h0l.2-.2.2-.2.4-.6v-.2c.1-.2.2-.3.2-.4s.1-.1.1-.2l.2-.3h0c0-.2.1-.3.1-.4h0c.1,0,.1-.1.1-.2h0a.3.3,0,0,0-.1-.2h0c0-.1-.1-.2-.1-.4h0l-.2-.3v-.2c0-.1-.1-.2-.2-.4h-.1l-.4-.7-.2-.2-.2-.2h0c-1.7-1.8-6.9-6.3-10.8-9.6h0L104.1.8A138.1,138.1,0,0,0,87.8,0Z"/><path class="b" d="M86,7.9l-9.6,8.9a1.2,1.2,0,0,0,0,1.7L86,27.4a1.1,1.1,0,0,0,1.9-.8V8.8A1.1,1.1,0,0,0,86,7.9Z"/><path class="a" d="M17.5,50H16.3l-.5-.3h-.2l-.4-.3-.2-.2h-.2l-.2-.3h-.2l-.2-.2-.2-.2h-.1L9.8,43.2H9.7L7.3,40.3,6,38.9h.1l-.9-1c-2-2.4-3.2-3.8-3.5-4.3C1.2,30.8,0,5.7,2.7,3.4S11.2,1,16.5,1h2c5.3,0,11.7.6,13.8,2.4s1.5,27.5,1,30.3l-3.5,4.2-1.4,1.7h0c-3.1,3.6-6.7,7.7-8.2,9s-.1.2-.2.2l-.2.2-.6.4h-.5a.1.1,0,0,1-.1.1H17.5Z"/><path class="b" d="M16.5,2h2c6.3,0,11.5.8,13.1,2.1.1.2,1.5,2.4,1.4,14.8-.1,6.8-.5,12.9-.7,14.4l-3.3,4-2.4,2.9c-2.8,3.2-5.7,6.4-7,7.7h-.4l-.5.3h-.9a.1.1,0,0,1-.1.1h-.4a.1.1,0,0,1-.1-.1h-1l-.4-.2h-.4c0-.1,0-.1-.1-.1l-.2-.3a.1.1,0,0,1-.1-.1.2.2,0,0,1-.2-.2h-.1l-1.5,1.4L14.6,47c-1-1-2.4-2.5-4.1-4.5h-.1L8,39.6l-.4-.4h0L6,37.2l-3.3-4c-.2-1.5-.6-7.6-.7-14.3C1.9,6.5,3.3,4.3,3.4,4.1,5,2.8,10.2,2,16.5,2m2-2h-2C13.7,0,5,.2,2.1,2.6S.4,33.4.8,34.1l3.7,4.4a.1.1,0,0,1-.1.1L9,43.8H9c1.6,1.8,3.1,3.5,4.2,4.6h.1l.2.2.3.2c0,.1,0,.1.1.1l.2.3a.1.1,0,0,1,.1.1h.2l.2.2.7.4h.1l.4.2H16l.3.2h.6c0,.1.1.1.2.1h1.6l.3-.2h.2l.4-.2h.1l.7-.4.2-.2c.1,0,.1-.1.2-.2h.1c1.8-1.7,6.4-6.9,9.6-10.8h0l3.7-4.5c.4-.7,2.2-28.6-1.3-31.5S21.3,0,18.5,0Z"/><path class="b" d="M27,16,18,6.4a1.2,1.2,0,0,0-1.7,0L7.4,16a1.2,1.2,0,0,0,.9,1.9H26.2A1.1,1.1,0,0,0,27,16Z"/><path class="c" d="M169.4,53.1c-2.9-3.5-30.8-1.7-31.5-1.3s-14.3,11.9-15.7,13.8-1.2,2.9-1.2,2.9-.2.9,1.2,2.9,15,13.4,15.7,13.8,28.6,2.2,31.5-1.3S172,68.5,172,68.5,172.3,56.5,169.4,53.1Z"/><path class="d" d="M165.6,67.6l-9.5-8.9a1.1,1.1,0,0,0-1.9.8V77.4a1.1,1.1,0,0,0,1.9.9l9.5-9A1.2,1.2,0,0,0,165.6,67.6Z"/><path class="c" d="M57.3,54.1h0l-.5-.4-.2-.3c-.1-.1-.2-.1-.2-.2l-.4-.4h-.2c0-.1-.1-.1-.1-.2l-.3-.2-.6-.4h-.2l-.4-.2H50.8l-.4.2h-.1l-.7.4-.2.2c-.1,0-.1.1-.2.2h-.1c-1.8,1.7-6.3,6.9-9.6,10.8h0l-3.7,4.5c-.4.7-2.2,28.6,1.3,31.5S52.5,102,52.5,102s12,.3,15.4-2.6,1.7-30.8,1.3-31.5S61.2,58.2,57.3,54.1Z"/><path class="d" d="M61.5,84.1H43.6a1.1,1.1,0,0,0-.8,1.9l8.9,9.6a1.3,1.3,0,0,0,1.8,0L62.4,86A1.2,1.2,0,0,0,61.5,84.1Z"/><path class="c" d="M119.4,71.9h0c.1-.1.2-.1.2-.2l.2-.2a6.1,6.1,0,0,0,.4-.6.3.3,0,0,0,.1-.2l.2-.4V70l.2-.3h0c0-.2.1-.3.1-.4h0c.1,0,.1-.1.1-.2h0v-.2h0c0-.1-.1-.2-.1-.4h0l-.2-.3v-.2l-.2-.4h-.1l-.4-.7-.2-.2c0-.1-.1-.1-.2-.2h0c-1.7-1.8-6.9-6.3-10.8-9.6h0l-4.5-3.7c-.7-.4-28.6-2.2-31.5,1.3S70,68.5,70,68.5s-.3,12,2.6,15.4,30.8,1.7,31.5,1.3l4.5-3.7h0C112.5,78.3,117.7,73.7,119.4,71.9Z"/><path class="d" d="M86,58.9l-9.6,8.9a1.2,1.2,0,0,0,0,1.7L86,78.4a1.1,1.1,0,0,0,1.9-.8V59.8A1.1,1.1,0,0,0,86,58.9Z"/><path class="c" d="M4.5,89.5H4.4L9,94.8H9c1.6,1.8,3.1,3.5,4.2,4.6h.1l.2.2.3.2h.1l.2.3h.3l.2.2.7.4h.1l.4.2H16l.3.2h2.4l.3-.2h.2l.4-.2h.1l.7-.4.2-.2.2-.2h.1c1.8-1.7,6.4-6.9,9.6-10.8h0l3.7-4.5c.4-.7,2.2-28.6-1.3-31.5S17.5,51,17.5,51s-12-.3-15.4,2.6S.4,84.4.8,85.1Z"/><path class="d" d="M27,67l-9-9.6a1.2,1.2,0,0,0-1.7,0L7.4,67a1.2,1.2,0,0,0,.9,1.9H26.2A1.1,1.1,0,0,0,27,67Z"/></svg>
