<svg xmlns="http://www.w3.org/2000/svg" width="216px" height="108px" viewBox="0 0 216 108"><defs><style>.a{fill:#e5e5e5;}.b{fill:#f66;}.c{fill:#7cb2e8;}.d{fill:#ff69f8;}.e{fill:#40e2a0;}.f{fill:#454545;}.g{fill:#1a1a1a;}.h{fill:#b4b4b4;}.i{fill:#ccc;}.j{fill:#a5a5a5;}</style></defs><circle class="a" cx="189" cy="81" r="27"/><circle class="a" cx="135" cy="81" r="27"/><circle class="a" cx="81" cy="81" r="27"/><circle class="a" cx="27" cy="81" r="27"/><path class="b" d="M189.3,62a19,19,0,1,0,19,19A19,19,0,0,0,189.3,62Zm0,35.1A16.1,16.1,0,1,1,205.4,81,16.1,16.1,0,0,1,189.3,97.1Z"/><polygon class="c" points="149.5 68.5 147.5 66.5 134.9 79 122.5 66.5 120.5 68.5 132.9 81 120.5 93.5 122.5 95.5 134.9 83.1 147.5 95.5 149.5 93.5 137 81 149.5 68.5"/><path class="d" d="M92.7,66.5H66.5v29h29v-29Zm0,26.2H69.3V69.4H92.7Z"/><path class="e" d="M42.9,90.1,27,62.9,11.1,90.1,9.5,92.9h35Zm-28.5,0L27,68.5,39.6,90.1Z"/><circle class="f" cx="189" cy="27" r="27"/><circle class="f" cx="135" cy="27" r="27"/><circle class="f" cx="81" cy="27" r="27"/><circle class="f" cx="27" cy="27" r="27"/><path class="b" d="M189.3,8a19,19,0,1,0,19,19A19,19,0,0,0,189.3,8Zm0,35.1A16.1,16.1,0,1,1,205.4,27,16.1,16.1,0,0,1,189.3,43.1Z"/><polygon class="c" points="149.5 14.5 147.5 12.5 134.9 25 122.5 12.5 120.5 14.5 132.9 27.1 120.5 39.5 122.5 41.5 134.9 29.1 147.5 41.5 149.5 39.5 137 27.1 149.5 14.5"/><path class="d" d="M92.7,12.5H66.5v29h29v-29Zm0,26.2H69.3V15.4H92.7Z"/><path class="e" d="M42.9,36.1,27,8.9,11.1,36.1,9.5,38.9h35Zm-28.5,0L27,14.5,39.6,36.1Z"/><circle class="g" cx="189" cy="81" r="27"/><circle class="g" cx="135" cy="81" r="27"/><circle class="g" cx="81" cy="81" r="27"/><circle class="g" cx="27" cy="81" r="27"/><path class="h" d="M189.3,62a19,19,0,1,0,19,19A19,19,0,0,0,189.3,62Zm0,35.1A16.1,16.1,0,1,1,205.4,81,16.1,16.1,0,0,1,189.3,97.1Z"/><polygon class="h" points="149.5 68.5 147.5 66.5 134.9 79 122.5 66.5 120.5 68.5 132.9 81 120.5 93.5 122.5 95.5 134.9 83.1 147.5 95.5 149.5 93.5 137 81 149.5 68.5"/><path class="h" d="M92.7,66.5H66.5v29h29v-29Zm0,26.2H69.3V69.4H92.7Z"/><path class="h" d="M42.9,90.1,27,62.9,11.1,90.1,9.5,92.9h35Zm-28.5,0L27,68.5,39.6,90.1Z"/><circle class="i" cx="189" cy="27" r="26"/><path class="j" d="M189,2a25,25,0,1,1-25,25A25,25,0,0,1,189,2m0-2a27,27,0,1,0,27,27A27,27,0,0,0,189,0Z"/><circle class="i" cx="135" cy="27" r="26"/><path class="j" d="M135,2a25,25,0,1,1-25,25A25,25,0,0,1,135,2m0-2a27,27,0,1,0,27,27A27,27,0,0,0,135,0Z"/><circle class="i" cx="81" cy="27" r="26"/><path class="j" d="M81,2A25,25,0,1,1,56,27,25,25,0,0,1,81,2m0-2a27,27,0,1,0,27,27A27,27,0,0,0,81,0Z"/><circle class="i" cx="27" cy="27" r="26"/><path class="j" d="M27,2A25,25,0,1,1,2,27,25,25,0,0,1,27,2m0-2A27,27,0,1,0,54,27,27,27,0,0,0,27,0Z"/><path class="j" d="M189.3,8a19,19,0,1,0,19,19A19,19,0,0,0,189.3,8Zm0,35.1A16.1,16.1,0,1,1,205.4,27,16.1,16.1,0,0,1,189.3,43.1Z"/><polygon class="j" points="149.5 14.5 147.5 12.5 134.9 25 122.5 12.5 120.5 14.5 132.9 27.1 120.5 39.5 122.5 41.5 134.9 29.1 147.5 41.5 149.5 39.5 137 27.1 149.5 14.5"/><path class="j" d="M92.7,12.5H66.5v29h29v-29Zm0,26.2H69.3V15.4H92.7Z"/><path class="j" d="M42.9,36.1,27,8.9,11.1,36.1,9.5,38.9h35Zm-28.5,0L27,14.5,39.6,36.1Z"/></svg>
