<svg xmlns="http://www.w3.org/2000/svg" viewBox="0 0 652 230"><defs><style>.a{fill:#282828;}.b{fill:#454545;}.c{fill:#f66;}.d{fill:#7cb2e8;}.e{fill:#ff69f8;}.f{fill:#40e2a0;}.g{isolation:isolate;}.h{fill:none;}.i{fill:#f2f2f2;}.j{fill:#800734;}.k{fill:#bf3569;}</style></defs><circle class="a" cx="94.5" cy="135.5" r="94.5"/><path class="b" d="M180.6,134.6l-9.5-8.9a1.1,1.1,0,0,0-1.9.8v17.9a1.1,1.1,0,0,0,1.9.9l9.5-9A1.2,1.2,0,0,0,180.6,134.6Z"/><path class="b" d="M103.5,210.1H85.6a1.1,1.1,0,0,0-.8,1.9l8.9,9.6a1.3,1.3,0,0,0,1.8,0l8.9-9.6A1.2,1.2,0,0,0,103.5,210.1Z"/><path class="b" d="M18,125.7l-9.6,8.9a1.2,1.2,0,0,0,0,1.7l9.6,8.9a1.1,1.1,0,0,0,1.9-.8V126.6A1.1,1.1,0,0,0,18,125.7Z"/><path class="b" d="M104.3,59l-8.9-9.6a1.2,1.2,0,0,0-1.7,0l-9,9.6a1.2,1.2,0,0,0,.9,1.9h17.9A1.1,1.1,0,0,0,104.3,59Z"/><path class="b" d="M81.4,138.9h0l.2-.2.2-.2.4-.6v-.2c.1-.2.2-.3.2-.4V137l.2-.3h0c0-.2.1-.3.1-.4h0c.1,0,.1-.1.1-.2h0v-.2h0c0-.1-.1-.2-.1-.4h0l-.2-.3v-.2c0-.1-.1-.2-.2-.4h-.1l-.4-.7-.2-.2-.2-.2h0c-1.7-1.8-6.9-6.3-10.8-9.6h0l-4.5-3.7c-.7-.4-28.6-2.2-31.5,1.3S32,135.5,32,135.5s-.3,12,2.6,15.4,30.8,1.7,31.5,1.3l4.5-3.7h0C74.5,145.3,79.7,140.7,81.4,138.9Zm.1-27.4h-.1l4.6,5.2h0c1.6,1.8,3.1,3.5,4.2,4.6h.1l.2.2.3.2h.1l.2.3h.3l.2.2.7.4h.1l.4.2H93l.3.2h2.4l.3-.2h.2l.4-.2h.1l.7-.4.2-.2.2-.2h.1c1.8-1.7,6.4-6.9,9.6-10.8h0l3.7-4.5c.4-.7,2.2-28.6-1.3-31.5S94.5,73,94.5,73s-12-.3-15.4,2.6-1.7,30.8-1.3,31.5Zm72.9,8.6c-2.9-3.5-30.8-1.7-31.5-1.3s-14.3,11.9-15.7,13.8-1.2,2.9-1.2,2.9-.2.9,1.2,2.9,15,13.4,15.7,13.8,28.6,2.2,31.5-1.3,2.6-15.4,2.6-15.4S157.3,123.5,154.4,120.1Zm-55.1,30h0l-.5-.4-.2-.3-.2-.2a.8.8,0,0,1-.4-.4h-.2v-.2l-.3-.2-.6-.4h-.2l-.4-.2h-.5a.1.1,0,0,0-.1-.1H92.8l-.4.2h-.1l-.7.4c0,.1-.1.1-.2.2l-.2.2h-.1c-1.8,1.7-6.3,6.9-9.6,10.8h0l-3.7,4.5c-.4.7-2.2,28.6,1.3,31.5S94.5,198,94.5,198s12,.3,15.4-2.6,1.7-30.8,1.3-31.5S103.2,154.2,99.3,150.1Z"/><circle class="a" cx="557.5" cy="135.5" r="94.5"/><circle class="b" cx="615" cy="135.5" r="27"/><circle class="b" cx="557.5" cy="193" r="27"/><circle class="b" cx="500" cy="135.5" r="27"/><circle class="b" cx="557.5" cy="78" r="27"/><path class="c" d="M615.3,116.5a19,19,0,1,0,19,19A19,19,0,0,0,615.3,116.5Zm0,35.1a16.1,16.1,0,1,1,16.1-16.1A16.1,16.1,0,0,1,615.3,151.6Z"/><polygon class="d" points="572 180.5 570 178.5 557.5 191 545 178.5 543 180.5 555.4 193.1 543 205.5 545 207.5 557.5 195.1 570 207.5 572 205.5 559.5 193.1 572 180.5"/><path class="e" d="M511.7,121H485.5v29h29V121Zm0,26.2H488.3V123.9h23.4Z"/><path class="f" d="M573.4,87.1,557.5,59.9,541.6,87.1,540,89.9h35Zm-28.5,0,12.6-21.6,12.6,21.6Z"/><g class="g"><circle class="a" cx="397.5" cy="164.5" r="56"/><path class="b" d="M397.5,118A46.5,46.5,0,1,1,351,164.5,46.6,46.6,0,0,1,397.5,118m0-19A65.5,65.5,0,1,0,463,164.5,65.5,65.5,0,0,0,397.5,99Z"/></g><g class="g"><circle class="a" cx="254.5" cy="164.5" r="56"/><path class="b" d="M254.5,118A46.5,46.5,0,1,1,208,164.5,46.6,46.6,0,0,1,254.5,118m0-19A65.5,65.5,0,1,0,320,164.5,65.5,65.5,0,0,0,254.5,99Z"/></g><rect class="h" x="208" y="118" width="236" height="93"/><path class="a" d="M444,70.5a15.9,15.9,0,0,1-4.3-.6,16.3,16.3,0,0,1-11.6-20.1l5.1-19.1A16.4,16.4,0,0,1,449,18.5a15.9,15.9,0,0,1,4.3.6,16.3,16.3,0,0,1,11.6,20.1l-5.1,19.1A16.4,16.4,0,0,1,444,70.5Z"/><path class="b" d="M449,20h0a17.4,17.4,0,0,1,3.9.5h.1a15,15,0,0,1,10.5,18.3l-5.1,19.1A15.1,15.1,0,0,1,444,69a17.4,17.4,0,0,1-3.9-.5H440a15,15,0,0,1-10.5-18.3l5.1-19.1A15.1,15.1,0,0,1,449,20m0-3a18,18,0,0,0-17.3,13.3l-5.1,19.1a18,18,0,0,0,12.7,22h0a19.5,19.5,0,0,0,4.7.6,18,18,0,0,0,17.3-13.3l5.1-19.1a18,18,0,0,0-12.7-22h0A19.5,19.5,0,0,0,449,17Z"/><path class="a" d="M208,70.5a16.4,16.4,0,0,1-15.8-12.2l-5.1-19a16.4,16.4,0,0,1,11.6-20.2,15.4,15.4,0,0,1,4.3-.6,16.4,16.4,0,0,1,15.8,12.2l5.1,19a16.4,16.4,0,0,1-11.6,20.2A15.4,15.4,0,0,1,208,70.5Z"/><path class="b" d="M203,20h0a15,15,0,0,1,14.4,11.1l5.1,19a15.1,15.1,0,0,1-10.6,18.4,17.4,17.4,0,0,1-3.9.5,15,15,0,0,1-14.4-11.1l-5.1-19a15.1,15.1,0,0,1,10.6-18.4A17.4,17.4,0,0,1,203,20m0-3a18.9,18.9,0,0,0-4.7.6h0a18,18,0,0,0-12.7,22l5.1,19.1A18,18,0,0,0,208,72a18.9,18.9,0,0,0,4.7-.6h0a18,18,0,0,0,12.7-22l-5.1-19.1A18,18,0,0,0,203,17Z"/><rect class="a" x="248.5" y="9.5" width="155" height="69" rx="8.5"/><path class="b" d="M395,11a7,7,0,0,1,7,7V70a7,7,0,0,1-7,7H257a7,7,0,0,1-7-7V18a7,7,0,0,1,7-7H395m0-3H257a10,10,0,0,0-10,10V70a10,10,0,0,0,10,10H395a10,10,0,0,0,10-10V18A10,10,0,0,0,395,8Z"/><path class="a" d="M619.6,0H569.4A2.4,2.4,0,0,0,567,2.4V28.6a2.4,2.4,0,0,0,2.4,2.4h50.2a2.4,2.4,0,0,0,2.4-2.4V2.4A2.4,2.4,0,0,0,619.6,0Z"/><path class="a" d="M552.6,0H502.4A2.4,2.4,0,0,0,500,2.4V28.6a2.4,2.4,0,0,0,2.4,2.4h50.2a2.4,2.4,0,0,0,2.4-2.4V2.4A2.4,2.4,0,0,0,552.6,0Z"/><path class="a" d="M150.6,0H100.4A2.4,2.4,0,0,0,98,2.4V28.6a2.4,2.4,0,0,0,2.4,2.4h50.2a2.4,2.4,0,0,0,2.4-2.4V2.4A2.4,2.4,0,0,0,150.6,0Z"/><path class="a" d="M84.6,0H34.4A2.4,2.4,0,0,0,32,2.4V28.6A2.4,2.4,0,0,0,34.4,31H84.6A2.4,2.4,0,0,0,87,28.6V2.4A2.4,2.4,0,0,0,84.6,0Z"/><path class="i" d="M587.3,9.6a10.6,10.6,0,0,1,2.7-.3,4.4,4.4,0,0,1,3.1.9,2.9,2.9,0,0,1,.8,2.1,2.8,2.8,0,0,1-2,2.7h0c.8.2,1.3,1,1.6,2.1a16.1,16.1,0,0,0,.8,3h-1.4a11.6,11.6,0,0,1-.7-2.6c-.4-1.5-.9-2-2.2-2.1h-1.3v4.7h-1.4Zm1.4,4.9h1.4a2.2,2.2,0,0,0,2.5-2.1c0-1.4-1.1-2-2.5-2h-1.4Z"/><path class="i" d="M595.4,20.2v-.9l1.1-1c2.7-2.6,3.9-3.9,3.9-5.5a1.9,1.9,0,0,0-2.1-2,3.7,3.7,0,0,0-2.2.9l-.4-1a4.5,4.5,0,0,1,2.9-1.1,2.9,2.9,0,0,1,3.2,3c0,2-1.4,3.5-3.6,5.6l-.8.8h4.7v1.2Z"/><path class="i" d="M520.3,9.6a10.6,10.6,0,0,1,2.7-.3,4.4,4.4,0,0,1,3.1.9,2.9,2.9,0,0,1,.8,2.1,2.8,2.8,0,0,1-2,2.7h0c.8.2,1.3,1,1.6,2.1a16.1,16.1,0,0,0,.8,3h-1.4a11.6,11.6,0,0,1-.7-2.6c-.4-1.5-.9-2-2.2-2.1h-1.3v4.7h-1.4Zm1.4,4.9h1.4a2.2,2.2,0,0,0,2.5-2.1c0-1.4-1.1-2-2.5-2h-1.4Z"/><path class="i" d="M531.5,11.1h-.1l-1.8,1-.2-1.1,2.2-1.2h1.2V20.2h-1.3Z"/><path class="i" d="M118.8,9.4h1.4V19h4.6v1.2h-6Z"/><path class="i" d="M129,11.1h-.1l-1.8,1-.3-1.1,2.3-1.2h1.2V20.2H129Z"/><path class="i" d="M52.8,9.4h1.4V19h4.6v1.2h-6Z"/><path class="i" d="M59.9,20.2v-.9l1.1-1c2.7-2.6,3.9-3.9,3.9-5.5a1.9,1.9,0,0,0-2.1-2,3.7,3.7,0,0,0-2.2.9l-.5-1a5,5,0,0,1,3-1.1,3,3,0,0,1,3.2,3c0,2-1.4,3.5-3.6,5.6l-.8.8h4.6v1.2Z"/><circle class="j" cx="94.5" cy="135.5" r="94.5"/><circle class="j" cx="557.5" cy="135.5" r="94.5"/><g class="g"><circle class="a" cx="397.5" cy="164.5" r="56"/><path class="b" d="M397.5,118A46.5,46.5,0,1,1,351,164.5,46.6,46.6,0,0,1,397.5,118m0-19A65.5,65.5,0,1,0,463,164.5,65.5,65.5,0,0,0,397.5,99Z"/></g><g class="g"><circle class="a" cx="254.5" cy="164.5" r="56"/><path class="b" d="M254.5,118A46.5,46.5,0,1,1,208,164.5,46.6,46.6,0,0,1,254.5,118m0-19A65.5,65.5,0,1,0,320,164.5,65.5,65.5,0,0,0,254.5,99Z"/></g><rect class="h" x="208" y="118" width="236" height="93"/><path class="k" d="M444,70.5a15.9,15.9,0,0,1-4.3-.6,16.3,16.3,0,0,1-11.6-20.1l5.1-19.1A16.4,16.4,0,0,1,449,18.5a15.9,15.9,0,0,1,4.3.6,16.3,16.3,0,0,1,11.6,20.1l-5.1,19.1A16.4,16.4,0,0,1,444,70.5Z"/><path class="j" d="M449,20h0a17.4,17.4,0,0,1,3.9.5h.1a15,15,0,0,1,10.5,18.3l-5.1,19.1A15.1,15.1,0,0,1,444,69a17.4,17.4,0,0,1-3.9-.5H440a15,15,0,0,1-10.5-18.3l5.1-19.1A15.1,15.1,0,0,1,449,20m0-3a18,18,0,0,0-17.3,13.3l-5.1,19.1a18,18,0,0,0,12.7,22h0a19.5,19.5,0,0,0,4.7.6,18,18,0,0,0,17.3-13.3l5.1-19.1a18,18,0,0,0-12.7-22h0A19.5,19.5,0,0,0,449,17Z"/><path class="k" d="M208,70.5a16.4,16.4,0,0,1-15.8-12.2l-5.1-19a16.4,16.4,0,0,1,11.6-20.2,15.4,15.4,0,0,1,4.3-.6,16.4,16.4,0,0,1,15.8,12.2l5.1,19a16.4,16.4,0,0,1-11.6,20.2A15.4,15.4,0,0,1,208,70.5Z"/><path class="j" d="M203,20h0a15,15,0,0,1,14.4,11.1l5.1,19a15.1,15.1,0,0,1-10.6,18.4,17.4,17.4,0,0,1-3.9.5,15,15,0,0,1-14.4-11.1l-5.1-19a15.1,15.1,0,0,1,10.6-18.4A17.4,17.4,0,0,1,203,20m0-3a18.9,18.9,0,0,0-4.7.6h0a18,18,0,0,0-12.7,22l5.1,19.1A18,18,0,0,0,208,72a18.9,18.9,0,0,0,4.7-.6h0a18,18,0,0,0,12.7-22l-5.1-19.1A18,18,0,0,0,203,17Z"/><rect class="k" x="248.5" y="9.5" width="155" height="69" rx="8.5"/><path class="j" d="M395,11a7,7,0,0,1,7,7V70a7,7,0,0,1-7,7H257a7,7,0,0,1-7-7V18a7,7,0,0,1,7-7H395m0-3H257a10,10,0,0,0-10,10V70a10,10,0,0,0,10,10H395a10,10,0,0,0,10-10V18A10,10,0,0,0,395,8Z"/><path class="k" d="M619.6,0H569.4A2.4,2.4,0,0,0,567,2.4V28.6a2.4,2.4,0,0,0,2.4,2.4h50.2a2.4,2.4,0,0,0,2.4-2.4V2.4A2.4,2.4,0,0,0,619.6,0Z"/><path class="k" d="M552.6,0H502.4A2.4,2.4,0,0,0,500,2.4V28.6a2.4,2.4,0,0,0,2.4,2.4h50.2a2.4,2.4,0,0,0,2.4-2.4V2.4A2.4,2.4,0,0,0,552.6,0Z"/><path class="k" d="M150.6,0H100.4A2.4,2.4,0,0,0,98,2.4V28.6a2.4,2.4,0,0,0,2.4,2.4h50.2a2.4,2.4,0,0,0,2.4-2.4V2.4A2.4,2.4,0,0,0,150.6,0Z"/><path class="k" d="M84.6,0H34.4A2.4,2.4,0,0,0,32,2.4V28.6A2.4,2.4,0,0,0,34.4,31H84.6A2.4,2.4,0,0,0,87,28.6V2.4A2.4,2.4,0,0,0,84.6,0Z"/><path class="i" d="M587.3,9.6a10.6,10.6,0,0,1,2.7-.3,4.4,4.4,0,0,1,3.1.9,2.9,2.9,0,0,1,.8,2.1,2.8,2.8,0,0,1-2,2.7h0c.8.2,1.3,1,1.6,2.1a16.1,16.1,0,0,0,.8,3h-1.4a11.6,11.6,0,0,1-.7-2.6c-.4-1.5-.9-2-2.2-2.1h-1.3v4.7h-1.4Zm1.4,4.9h1.4a2.2,2.2,0,0,0,2.5-2.1c0-1.4-1.1-2-2.5-2h-1.4Z"/><path class="i" d="M595.4,20.2v-.9l1.1-1c2.7-2.6,3.9-3.9,3.9-5.5a1.9,1.9,0,0,0-2.1-2,3.7,3.7,0,0,0-2.2.9l-.4-1a4.5,4.5,0,0,1,2.9-1.1,2.9,2.9,0,0,1,3.2,3c0,2-1.4,3.5-3.6,5.6l-.8.8h4.7v1.2Z"/><path class="i" d="M520.3,9.6a10.6,10.6,0,0,1,2.7-.3,4.4,4.4,0,0,1,3.1.9,2.9,2.9,0,0,1,.8,2.1,2.8,2.8,0,0,1-2,2.7h0c.8.2,1.3,1,1.6,2.1a16.1,16.1,0,0,0,.8,3h-1.4a11.6,11.6,0,0,1-.7-2.6c-.4-1.5-.9-2-2.2-2.1h-1.3v4.7h-1.4Zm1.4,4.9h1.4a2.2,2.2,0,0,0,2.5-2.1c0-1.4-1.1-2-2.5-2h-1.4Z"/><path class="i" d="M531.5,11.1h-.1l-1.8,1-.2-1.1,2.2-1.2h1.2V20.2h-1.3Z"/><path class="i" d="M118.8,9.4h1.4V19h4.6v1.2h-6Z"/><path class="i" d="M129,11.1h-.1l-1.8,1-.3-1.1,2.3-1.2h1.2V20.2H129Z"/><path class="i" d="M52.8,9.4h1.4V19h4.6v1.2h-6Z"/><path class="i" d="M59.9,20.2v-.9l1.1-1c2.7-2.6,3.9-3.9,3.9-5.5a1.9,1.9,0,0,0-2.1-2,3.7,3.7,0,0,0-2.2.9l-.5-1a5,5,0,0,1,3-1.1,3,3,0,0,1,3.2,3c0,2-1.4,3.5-3.6,5.6l-.8.8h4.6v1.2Z"/></svg>