<svg xmlns="http://www.w3.org/2000/svg" viewBox="0 0 41 55"><defs><style>.a{fill:#f2f2f2;}.b{fill:#e5e5e5;}</style></defs><path class="a" d="M23,53.5A16.4,16.4,0,0,1,7.2,41.3l-5.1-19A16.4,16.4,0,0,1,13.7,2.1,15.4,15.4,0,0,1,18,1.5,16.4,16.4,0,0,1,33.8,13.7l5.1,19A16.4,16.4,0,0,1,27.3,52.9,15.4,15.4,0,0,1,23,53.5Z" transform="translate(0 0)"/><path class="b" d="M18,3h0A15,15,0,0,1,32.4,14.1l5.1,19A15.1,15.1,0,0,1,26.9,51.5,17.4,17.4,0,0,1,23,52,15,15,0,0,1,8.6,40.9l-5.1-19A15.1,15.1,0,0,1,14.1,3.5,17.4,17.4,0,0,1,18,3m0-3a18.9,18.9,0,0,0-4.7.6h0A18,18,0,0,0,.6,22.6L5.7,41.7A18,18,0,0,0,23,55a18.9,18.9,0,0,0,4.7-.6h0a18,18,0,0,0,12.7-22L35.3,13.3A18,18,0,0,0,18,0Z" transform="translate(0 0)"/></svg>